<svg xmlns="http://www.w3.org/2000/svg" viewBox="0 0 1200 180" width="100%" height="180" preserveAspectRatio="none">
<defs>
  <filter id="liquidFlow">
    <feGaussianBlur stdDeviation="8" in="SourceGraphic" result="blur"/>
    <feColorMatrix in="blur" mode="matrix"
      values="1 0 0 0 0  0 1 0 0 0  0 0 1 0 0  0 0 0 20 -9"
      result="liquid"/>
    <feComposite in="SourceGraphic" in2="liquid" operator="atop"/>
  </filter>

  <linearGradient id="midnightGrad" x1="0" y1="0" x2="0" y2="1">
    <stop offset="0%"   stop-color="#0d1117" stop-opacity="0"/>
    <stop offset="40%"  stop-color="#161b22" stop-opacity="0.6"/>
    <stop offset="100%" stop-color="#000000" stop-opacity="0.1"/>
  </linearGradient>

  <linearGradient id="neuralAura" x1="0" y1="0" x2="1" y2="0">
    <stop offset="0%"   stop-color="#00D4C8" stop-opacity="0.05"/>
    <stop offset="50%"  stop-color="#9B59B6" stop-opacity="0.1"/>
    <stop offset="100%" stop-color="#00D4C8" stop-opacity="0.05"/>
  </linearGradient>
</defs>

<style>
  @keyframes surf {
    0%   { transform: translateY(0)    scaleY(1);   }
    50%  { transform: translateY(15px) scaleY(0.9); }
    100% { transform: translateY(0)    scaleY(1);   }
  }
  @keyframes flow {
    0%   { transform: translateX(0);      }
    100% { transform: translateX(-1200px); }
  }
  .liquid-group {
    filter: url(#liquidFlow);
    animation: surf 8s infinite ease-in-out;
    transform-origin: center;
  }
  .wave-path {
    animation: flow 40s linear infinite;
  }
</style>

<g class="liquid-group">
  <path class="wave-path" d="M -1200 180 L -1200 90.0 L -1100 120.3 L -1000 120.3 L -900 90.0 L -800 59.7 L -700 59.7 L -600 90.0 L -500 120.3 L -400 120.3 L -300 90.0 L -200 59.7 L -100 59.7 L 0 90.0 L 100 120.3 L 200 120.3 L 300 90.0 L 400 59.7 L 500 59.7 L 600 90.0 L 700 120.3 L 800 120.3 L 900 90.0 L 1000 59.7 L 1100 59.7 L 1200 90.0 L 1300 120.3 L 1400 120.3 L 1500 90.0 L 1600 59.7 L 1700 59.7 L 1800 90.0 L 1900 120.3 L 2000 120.3 L 2100 90.0 L 2200 59.7 L 2300 59.7 L 2400 90.0 L 2500 120.3 L 2600 120.3 L 2700 90.0 L 2800 59.7 L 2900 59.7 L 3000 90.0 L 3100 120.3 L 3200 120.3 L 3300 90.0 L 3400 59.7 L 3500 59.7 L 3600 90.0 L 3600 180 Z" fill="url(#midnightGrad)" style="animation-duration:30s;opacity:0.5;"/>
  <path class="wave-path" d="M -1200 180 L -1200 90.0 L -1100 120.3 L -1000 120.3 L -900 90.0 L -800 59.7 L -700 59.7 L -600 90.0 L -500 120.3 L -400 120.3 L -300 90.0 L -200 59.7 L -100 59.7 L 0 90.0 L 100 120.3 L 200 120.3 L 300 90.0 L 400 59.7 L 500 59.7 L 600 90.0 L 700 120.3 L 800 120.3 L 900 90.0 L 1000 59.7 L 1100 59.7 L 1200 90.0 L 1300 120.3 L 1400 120.3 L 1500 90.0 L 1600 59.7 L 1700 59.7 L 1800 90.0 L 1900 120.3 L 2000 120.3 L 2100 90.0 L 2200 59.7 L 2300 59.7 L 2400 90.0 L 2500 120.3 L 2600 120.3 L 2700 90.0 L 2800 59.7 L 2900 59.7 L 3000 90.0 L 3100 120.3 L 3200 120.3 L 3300 90.0 L 3400 59.7 L 3500 59.7 L 3600 90.0 L 3600 180 Z" fill="none" stroke="url(#neuralAura)" stroke-width="2" style="animation-duration:30s;"/>
  <path class="wave-path" d="M -1200 180 L -1200 59.7 L -1100 59.7 L -1000 90.0 L -900 120.3 L -800 120.3 L -700 90.0 L -600 59.7 L -500 59.7 L -400 90.0 L -300 120.3 L -200 120.3 L -100 90.0 L 0 59.7 L 100 59.7 L 200 90.0 L 300 120.3 L 400 120.3 L 500 90.0 L 600 59.7 L 700 59.7 L 800 90.0 L 900 120.3 L 1000 120.3 L 1100 90.0 L 1200 59.7 L 1300 59.7 L 1400 90.0 L 1500 120.3 L 1600 120.3 L 1700 90.0 L 1800 59.7 L 1900 59.7 L 2000 90.0 L 2100 120.3 L 2200 120.3 L 2300 90.0 L 2400 59.7 L 2500 59.7 L 2600 90.0 L 2700 120.3 L 2800 120.3 L 2900 90.0 L 3000 59.7 L 3100 59.7 L 3200 90.0 L 3300 120.3 L 3400 120.3 L 3500 90.0 L 3600 59.7 L 3600 180 Z" fill="url(#midnightGrad)" style="animation-duration:45s;opacity:0.6;"/>
  <path class="wave-path" d="M -1200 180 L -1200 59.7 L -1100 59.7 L -1000 90.0 L -900 120.3 L -800 120.3 L -700 90.0 L -600 59.7 L -500 59.7 L -400 90.0 L -300 120.3 L -200 120.3 L -100 90.0 L 0 59.7 L 100 59.7 L 200 90.0 L 300 120.3 L 400 120.3 L 500 90.0 L 600 59.7 L 700 59.7 L 800 90.0 L 900 120.3 L 1000 120.3 L 1100 90.0 L 1200 59.7 L 1300 59.7 L 1400 90.0 L 1500 120.3 L 1600 120.3 L 1700 90.0 L 1800 59.7 L 1900 59.7 L 2000 90.0 L 2100 120.3 L 2200 120.3 L 2300 90.0 L 2400 59.7 L 2500 59.7 L 2600 90.0 L 2700 120.3 L 2800 120.3 L 2900 90.0 L 3000 59.7 L 3100 59.7 L 3200 90.0 L 3300 120.3 L 3400 120.3 L 3500 90.0 L 3600 59.7 L 3600 180 Z" fill="none" stroke="url(#neuralAura)" stroke-width="2" style="animation-duration:45s;"/>
  <path class="wave-path" d="M -1200 180 L -1200 120.3 L -1100 90.0 L -1000 59.7 L -900 59.7 L -800 90.0 L -700 120.3 L -600 120.3 L -500 90.0 L -400 59.7 L -300 59.7 L -200 90.0 L -100 120.3 L 0 120.3 L 100 90.0 L 200 59.7 L 300 59.7 L 400 90.0 L 500 120.3 L 600 120.3 L 700 90.0 L 800 59.7 L 900 59.7 L 1000 90.0 L 1100 120.3 L 1200 120.3 L 1300 90.0 L 1400 59.7 L 1500 59.7 L 1600 90.0 L 1700 120.3 L 1800 120.3 L 1900 90.0 L 2000 59.7 L 2100 59.7 L 2200 90.0 L 2300 120.3 L 2400 120.3 L 2500 90.0 L 2600 59.7 L 2700 59.7 L 2800 90.0 L 2900 120.3 L 3000 120.3 L 3100 90.0 L 3200 59.7 L 3300 59.7 L 3400 90.0 L 3500 120.3 L 3600 120.3 L 3600 180 Z" fill="url(#midnightGrad)" style="animation-duration:60s;opacity:0.7;"/>
  <path class="wave-path" d="M -1200 180 L -1200 120.3 L -1100 90.0 L -1000 59.7 L -900 59.7 L -800 90.0 L -700 120.3 L -600 120.3 L -500 90.0 L -400 59.7 L -300 59.7 L -200 90.0 L -100 120.3 L 0 120.3 L 100 90.0 L 200 59.7 L 300 59.7 L 400 90.0 L 500 120.3 L 600 120.3 L 700 90.0 L 800 59.7 L 900 59.7 L 1000 90.0 L 1100 120.3 L 1200 120.3 L 1300 90.0 L 1400 59.7 L 1500 59.7 L 1600 90.0 L 1700 120.3 L 1800 120.3 L 1900 90.0 L 2000 59.7 L 2100 59.7 L 2200 90.0 L 2300 120.3 L 2400 120.3 L 2500 90.0 L 2600 59.7 L 2700 59.7 L 2800 90.0 L 2900 120.3 L 3000 120.3 L 3100 90.0 L 3200 59.7 L 3300 59.7 L 3400 90.0 L 3500 120.3 L 3600 120.3 L 3600 180 Z" fill="none" stroke="url(#neuralAura)" stroke-width="2" style="animation-duration:60s;"/>
</g>
</svg>
