<svg xmlns="http://www.w3.org/2000/svg" viewBox="0 0 1200 500">
<defs>
<style>
  @keyframes floatCube {
    0%, 100% { transform: translateY(0px);   opacity: 0.8; }
    50%       { transform: translateY(-30px); opacity: 1;   }
  }
  @keyframes pulseHolo {
    0%, 100% { opacity: 0.1; transform: scale(1);   }
    50%       { opacity: 0.4; transform: scale(1.1); }
  }
  @keyframes rayStream {
    0%   { stroke-dashoffset: 100; opacity: 0; }
    50%  { opacity: 1; }
    100% { stroke-dashoffset: 0;   opacity: 0; }
  }
  @keyframes orbitNode {
    0%   { transform: rotate(0deg)   translateX(120px) rotate(0deg);    }
    100% { transform: rotate(360deg) translateX(120px) rotate(-360deg); }
  }
  .cube-top       { fill: #00D4C8; stroke: #00f0e8; stroke-width: 0.5; filter: drop-shadow(0 0 4px #00D4C8); }
  .cube-left      { fill: #0a5c6b; stroke: #0d7080; stroke-width: 0.5; }
  .cube-right     { fill: #071628; stroke: #0a3040; stroke-width: 0.5; }
  .cube-top-hot   { fill: #a78bfa; stroke: #c4b5fd; stroke-width: 0.5; filter: drop-shadow(0 0 6px #a78bfa); }
  .cube-left-hot  { fill: #5b21b6; stroke: #7c3aed; stroke-width: 0.5; }
  .cube-right-hot { fill: #1e0a40; stroke: #3b1175; stroke-width: 0.5; }
  .cube-top-gold  { fill: #c4b5fd; stroke: #e0d8ff; stroke-width: 0.5; filter: drop-shadow(0 0 6px #c4b5fd); }
  .cube-left-gold { fill: #6d28d9; stroke: #8b5cf6; stroke-width: 0.5; }
  .cube-right-gold{ fill: #2d1060; stroke: #4c1d95; stroke-width: 0.5; }
  .holo-grid      { stroke: #00D4C8; stroke-width: 0.5; opacity: 0.15; fill: none; }
  .data-ray       { stroke: #a78bfa; stroke-width: 1.5; stroke-dasharray: 20 80; opacity: 0; }
  .core-sphere    { fill: url(#coreGlow); filter: drop-shadow(0 0 20px #00D4C8); }
</style>

<radialGradient id="coreGlow" cx="50%" cy="50%" r="50%">
  <stop offset="0%"   stop-color="#ffffff"/>
  <stop offset="30%"  stop-color="#00D4C8"/>
  <stop offset="100%" stop-color="#071628" stop-opacity="0"/>
</radialGradient>
</defs>

<rect width="1200" height="500" fill="#050510" rx="12"/>

<!-- Holographic rings -->
<g transform="translate(600.0, 250.0)">
  <ellipse cx="0" cy="0" rx="400" ry="150" stroke="#00D4C8" fill="none" class="holo-grid"
    style="animation: pulseHolo 8s infinite;"/>
  <ellipse cx="0" cy="0" rx="300" ry="110" stroke="#a78bfa" fill="none" class="holo-grid"
    stroke-dasharray="10 5" style="animation: pulseHolo 6s infinite 1s;"/>
  <ellipse cx="0" cy="0" rx="200" ry="70"  stroke="#c4b5fd" fill="none" class="holo-grid"
    style="animation: pulseHolo 4s infinite 2s;"/>

  <!-- Core sphere -->
  <circle cx="0" cy="-50" r="80" class="core-sphere"
    style="animation: floatCube 4s infinite ease-in-out alternate;"/>
  <text y="0" text-anchor="middle" font-family="'Courier New',monospace"
    font-size="12" fill="#fff" letter-spacing="4px" opacity="0.6">A.G.I.</text>

  <!-- Orbiting nodes -->
  <g style="animation: orbitNode 12s linear infinite;">
    <circle cx="0" cy="0" r="4" fill="#00D4C8" filter="drop-shadow(0 0 5px #00D4C8)"/>
    <path d="M0,0 L0,50" stroke="#00D4C8" stroke-dasharray="2 2" opacity="0.4"/>
  </g>
  <g style="animation: orbitNode 8s linear infinite reverse;">
    <circle cx="0" cy="0" r="3" fill="#a78bfa" filter="drop-shadow(0 0 5px #a78bfa)"/>
  </g>
</g>

<g style="animation: floatCube 3.3s infinite ease-in-out 2.706797949691645s alternate;">
  <polygon points="640.0,256.5989081730601 680.0,276.5989081730601 680.0,290.0 640.0,270.0"  class="cube-left-gold"/>
  <polygon points="680.0,276.5989081730601 720.0,256.5989081730601 720.0,270.0 680.0,290.0" class="cube-right-gold"/>
  <polygon points="680.0,236.59890817306012 720.0,256.5989081730601 680.0,276.5989081730601 640.0,256.5989081730601"   class="cube-top-gold"/>
  <line x1="680.0" y1="256.5989081730601" x2="680.0" y2="136.59890817306012" class="data-ray"
    style="animation: rayStream 3.7s infinite linear 2.6s;"/>
</g>
<g style="animation: floatCube 3.7s infinite ease-in-out 0.37098337352059163s alternate;">
  <polygon points="560.0,231.79327582567467 600.0,251.79327582567467 600.0,290.0 560.0,270.0"  class="cube-left"/>
  <polygon points="600.0,251.79327582567467 640.0,231.79327582567467 640.0,270.0 600.0,290.0" class="cube-right"/>
  <polygon points="600.0,211.79327582567467 640.0,231.79327582567467 600.0,251.79327582567467 560.0,231.79327582567467"   class="cube-top"/>
  <line x1="600.0" y1="231.79327582567467" x2="600.0" y2="111.79327582567467" class="data-ray"
    style="animation: rayStream 3.6s infinite linear 1.4s;"/>
</g>
<g style="animation: floatCube 3.9s infinite ease-in-out 3.746618350849976s alternate;">
  <polygon points="480.0,257.0100193943802 520.0,277.0100193943802 520.0,290.0 480.0,270.0"  class="cube-left"/>
  <polygon points="520.0,277.0100193943802 560.0,257.0100193943802 560.0,270.0 520.0,290.0" class="cube-right"/>
  <polygon points="520.0,237.0100193943802 560.0,257.0100193943802 520.0,277.0100193943802 480.0,257.0100193943802"   class="cube-top"/>
  <line x1="520.0" y1="257.0100193943802" x2="520.0" y2="137.0100193943802" class="data-ray"
    style="animation: rayStream 3.6s infinite linear 0.7s;"/>
</g>
<g style="animation: floatCube 3.1s infinite ease-in-out 1.6876872787410817s alternate;">
  <polygon points="680.0,239.39724988300668 720.0,259.3972498830067 720.0,300.0 680.0,280.0"  class="cube-left"/>
  <polygon points="720.0,259.3972498830067 760.0,239.39724988300668 760.0,280.0 720.0,300.0" class="cube-right"/>
  <polygon points="720.0,219.39724988300668 760.0,239.39724988300668 720.0,259.3972498830067 680.0,239.39724988300668"   class="cube-top"/>
  <line x1="720.0" y1="239.39724988300668" x2="720.0" y2="119.39724988300668" class="data-ray"
    style="animation: rayStream 2.4s infinite linear 1.0s;"/>
</g>
<g style="animation: floatCube 5.6s infinite ease-in-out 2.4149041254675643s alternate;">
  <polygon points="600.0,257.0985086949961 640.0,277.0985086949961 640.0,300.0 600.0,280.0"  class="cube-left-hot"/>
  <polygon points="640.0,277.0985086949961 680.0,257.0985086949961 680.0,280.0 640.0,300.0" class="cube-right-hot"/>
  <polygon points="640.0,237.0985086949961 680.0,257.0985086949961 640.0,277.0985086949961 600.0,257.0985086949961"   class="cube-top-hot"/>
  <line x1="640.0" y1="257.0985086949961" x2="640.0" y2="137.0985086949961" class="data-ray"
    style="animation: rayStream 3.9s infinite linear 0.8s;"/>
</g>
<g style="animation: floatCube 4.9s infinite ease-in-out 0.684554592792388s alternate;">
  <polygon points="520.0,240.5589384426022 560.0,260.5589384426022 560.0,300.0 520.0,280.0"  class="cube-left-gold"/>
  <polygon points="560.0,260.5589384426022 600.0,240.5589384426022 600.0,280.0 560.0,300.0" class="cube-right-gold"/>
  <polygon points="560.0,220.5589384426022 600.0,240.5589384426022 560.0,260.5589384426022 520.0,240.5589384426022"   class="cube-top-gold"/>
  <line x1="560.0" y1="240.5589384426022" x2="560.0" y2="120.5589384426022" class="data-ray"
    style="animation: rayStream 2.8s infinite linear 2.9s;"/>
</g>
<g style="animation: floatCube 4.6s infinite ease-in-out 3.990150425980441s alternate;">
  <polygon points="440.0,254.18062175994015 480.0,274.18062175994015 480.0,300.0 440.0,280.0"  class="cube-left"/>
  <polygon points="480.0,274.18062175994015 520.0,254.18062175994015 520.0,280.0 480.0,300.0" class="cube-right"/>
  <polygon points="480.0,234.18062175994015 520.0,254.18062175994015 480.0,274.18062175994015 440.0,254.18062175994015"   class="cube-top"/>
  <line x1="480.0" y1="254.18062175994015" x2="480.0" y2="134.18062175994015" class="data-ray"
    style="animation: rayStream 3.9s infinite linear 0.3s;"/>
</g>
<g style="animation: floatCube 5.9s infinite ease-in-out 1.100117273476477s alternate;">
  <polygon points="800.0,266.8171960462635 840.0,286.8171960462635 840.0,310.0 800.0,290.0"  class="cube-left"/>
  <polygon points="840.0,286.8171960462635 880.0,266.8171960462635 880.0,290.0 840.0,310.0" class="cube-right"/>
  <polygon points="840.0,246.81719604626352 880.0,266.8171960462635 840.0,286.8171960462635 800.0,266.8171960462635"   class="cube-top"/>
  <line x1="840.0" y1="266.8171960462635" x2="840.0" y2="146.81719604626352" class="data-ray"
    style="animation: rayStream 2.4s infinite linear 2.9s;"/>
</g>
<g style="animation: floatCube 3.8s infinite ease-in-out 2.0214211524134496s alternate;">
  <polygon points="720.0,270.69039563434245 760.0,290.69039563434245 760.0,310.0 720.0,290.0"  class="cube-left"/>
  <polygon points="760.0,290.69039563434245 800.0,270.69039563434245 800.0,290.0 760.0,310.0" class="cube-right"/>
  <polygon points="760.0,250.69039563434245 800.0,270.69039563434245 760.0,290.69039563434245 720.0,270.69039563434245"   class="cube-top"/>
  <line x1="760.0" y1="270.69039563434245" x2="760.0" y2="150.69039563434245" class="data-ray"
    style="animation: rayStream 2.2s infinite linear 1.3s;"/>
</g>
<g style="animation: floatCube 5.2s infinite ease-in-out 2.144912365818803s alternate;">
  <polygon points="640.0,237.34032708176187 680.0,257.34032708176187 680.0,310.0 640.0,290.0"  class="cube-left-gold"/>
  <polygon points="680.0,257.34032708176187 720.0,237.34032708176187 720.0,290.0 680.0,310.0" class="cube-right-gold"/>
  <polygon points="680.0,217.34032708176187 720.0,237.34032708176187 680.0,257.34032708176187 640.0,237.34032708176187"   class="cube-top-gold"/>
  <line x1="680.0" y1="237.34032708176187" x2="680.0" y2="117.34032708176187" class="data-ray"
    style="animation: rayStream 2.6s infinite linear 1.8s;"/>
</g>
<g style="animation: floatCube 4.5s infinite ease-in-out 1.5178217670305911s alternate;">
  <polygon points="560.0,236.00844705539808 600.0,256.00844705539805 600.0,310.0 560.0,290.0"  class="cube-left"/>
  <polygon points="600.0,256.00844705539805 640.0,236.00844705539808 640.0,290.0 600.0,310.0" class="cube-right"/>
  <polygon points="600.0,216.00844705539808 640.0,236.00844705539808 600.0,256.00844705539805 560.0,236.00844705539808"   class="cube-top"/>
  <line x1="600.0" y1="236.00844705539808" x2="600.0" y2="116.00844705539808" class="data-ray"
    style="animation: rayStream 2.8s infinite linear 1.7s;"/>
</g>
<g style="animation: floatCube 3.8s infinite ease-in-out 0.18846550169893828s alternate;">
  <polygon points="480.0,246.26838646969935 520.0,266.26838646969935 520.0,310.0 480.0,290.0"  class="cube-left"/>
  <polygon points="520.0,266.26838646969935 560.0,246.26838646969935 560.0,290.0 520.0,310.0" class="cube-right"/>
  <polygon points="520.0,226.26838646969935 560.0,246.26838646969935 520.0,266.26838646969935 480.0,246.26838646969935"   class="cube-top"/>
  <line x1="520.0" y1="246.26838646969935" x2="520.0" y2="126.26838646969935" class="data-ray"
    style="animation: rayStream 3.4s infinite linear 0.0s;"/>
</g>
<g style="animation: floatCube 5.8s infinite ease-in-out 0.6113570741985392s alternate;">
  <polygon points="400.0,252.4158273715044 440.0,272.4158273715044 440.0,310.0 400.0,290.0"  class="cube-left-gold"/>
  <polygon points="440.0,272.4158273715044 480.0,252.4158273715044 480.0,290.0 440.0,310.0" class="cube-right-gold"/>
  <polygon points="440.0,232.4158273715044 480.0,252.4158273715044 440.0,272.4158273715044 400.0,252.4158273715044"   class="cube-top-gold"/>
  <line x1="440.0" y1="252.4158273715044" x2="440.0" y2="132.4158273715044" class="data-ray"
    style="animation: rayStream 3.1s infinite linear 2.2s;"/>
</g>
<g style="animation: floatCube 5.2s infinite ease-in-out 1.7524003356580162s alternate;">
  <polygon points="320.0,256.1455193001732 360.0,276.1455193001732 360.0,310.0 320.0,290.0"  class="cube-left-gold"/>
  <polygon points="360.0,276.1455193001732 400.0,256.1455193001732 400.0,290.0 360.0,310.0" class="cube-right-gold"/>
  <polygon points="360.0,236.1455193001732 400.0,256.1455193001732 360.0,276.1455193001732 320.0,256.1455193001732"   class="cube-top-gold"/>
  <line x1="360.0" y1="256.1455193001732" x2="360.0" y2="136.1455193001732" class="data-ray"
    style="animation: rayStream 3.3s infinite linear 1.1s;"/>
</g>
<g style="animation: floatCube 3.2s infinite ease-in-out 2.599537751118093s alternate;">
  <polygon points="760.0,279.2039209094841 800.0,299.2039209094841 800.0,320.0 760.0,300.0"  class="cube-left"/>
  <polygon points="800.0,299.2039209094841 840.0,279.2039209094841 840.0,300.0 800.0,320.0" class="cube-right"/>
  <polygon points="800.0,259.2039209094841 840.0,279.2039209094841 800.0,299.2039209094841 760.0,279.2039209094841"   class="cube-top"/>
  <line x1="800.0" y1="279.2039209094841" x2="800.0" y2="159.2039209094841" class="data-ray"
    style="animation: rayStream 3.3s infinite linear 1.0s;"/>
</g>
<g style="animation: floatCube 3.9s infinite ease-in-out 2.208162525092908s alternate;">
  <polygon points="680.0,236.77621709050146 720.0,256.77621709050146 720.0,320.0 680.0,300.0"  class="cube-left"/>
  <polygon points="720.0,256.77621709050146 760.0,236.77621709050146 760.0,300.0 720.0,320.0" class="cube-right"/>
  <polygon points="720.0,216.77621709050146 760.0,236.77621709050146 720.0,256.77621709050146 680.0,236.77621709050146"   class="cube-top"/>
  <line x1="720.0" y1="236.77621709050146" x2="720.0" y2="116.77621709050146" class="data-ray"
    style="animation: rayStream 3.7s infinite linear 2.2s;"/>
</g>
<g style="animation: floatCube 3.9s infinite ease-in-out 2.227798975098585s alternate;">
  <polygon points="600.0,228.00311988832598 640.0,248.00311988832598 640.0,320.0 600.0,300.0"  class="cube-left-gold"/>
  <polygon points="640.0,248.00311988832598 680.0,228.00311988832598 680.0,300.0 640.0,320.0" class="cube-right-gold"/>
  <polygon points="640.0,208.00311988832598 680.0,228.00311988832598 640.0,248.00311988832598 600.0,228.00311988832598"   class="cube-top-gold"/>
  <line x1="640.0" y1="228.00311988832598" x2="640.0" y2="108.00311988832598" class="data-ray"
    style="animation: rayStream 2.6s infinite linear 1.2s;"/>
</g>
<g style="animation: floatCube 4.2s infinite ease-in-out 3.1683174574518564s alternate;">
  <polygon points="520.0,254.39934649690406 560.0,274.39934649690406 560.0,320.0 520.0,300.0"  class="cube-left-gold"/>
  <polygon points="560.0,274.39934649690406 600.0,254.39934649690406 600.0,300.0 560.0,320.0" class="cube-right-gold"/>
  <polygon points="560.0,234.39934649690406 600.0,254.39934649690406 560.0,274.39934649690406 520.0,254.39934649690406"   class="cube-top-gold"/>
  <line x1="560.0" y1="254.39934649690406" x2="560.0" y2="134.39934649690406" class="data-ray"
    style="animation: rayStream 2.6s infinite linear 0.4s;"/>
</g>
<g style="animation: floatCube 4.3s infinite ease-in-out 3.114505914522233s alternate;">
  <polygon points="440.0,243.09436600762803 480.0,263.094366007628 480.0,320.0 440.0,300.0"  class="cube-left"/>
  <polygon points="480.0,263.094366007628 520.0,243.09436600762803 520.0,300.0 480.0,320.0" class="cube-right"/>
  <polygon points="480.0,223.09436600762803 520.0,243.09436600762803 480.0,263.094366007628 440.0,243.09436600762803"   class="cube-top"/>
  <line x1="480.0" y1="243.09436600762803" x2="480.0" y2="123.09436600762803" class="data-ray"
    style="animation: rayStream 3.9s infinite linear 2.0s;"/>
</g>
<g style="animation: floatCube 5.7s infinite ease-in-out 0.8987893481262295s alternate;">
  <polygon points="360.0,264.47272476893227 400.0,284.47272476893227 400.0,320.0 360.0,300.0"  class="cube-left"/>
  <polygon points="400.0,284.47272476893227 440.0,264.47272476893227 440.0,300.0 400.0,320.0" class="cube-right"/>
  <polygon points="400.0,244.47272476893227 440.0,264.47272476893227 400.0,284.47272476893227 360.0,264.47272476893227"   class="cube-top"/>
  <line x1="400.0" y1="264.47272476893227" x2="400.0" y2="144.47272476893227" class="data-ray"
    style="animation: rayStream 3.2s infinite linear 0.9s;"/>
</g>
<g style="animation: floatCube 4.6s infinite ease-in-out 2.357062735503635s alternate;">
  <polygon points="800.0,275.2360677993881 840.0,295.2360677993881 840.0,330.0 800.0,310.0"  class="cube-left"/>
  <polygon points="840.0,295.2360677993881 880.0,275.2360677993881 880.0,310.0 840.0,330.0" class="cube-right"/>
  <polygon points="840.0,255.23606779938808 880.0,275.2360677993881 840.0,295.2360677993881 800.0,275.2360677993881"   class="cube-top"/>
  <line x1="840.0" y1="275.2360677993881" x2="840.0" y2="155.23606779938808" class="data-ray"
    style="animation: rayStream 2.0s infinite linear 0.9s;"/>
</g>
<g style="animation: floatCube 4.3s infinite ease-in-out 3.446827601243109s alternate;">
  <polygon points="720.0,249.11786007241017 760.0,269.11786007241017 760.0,330.0 720.0,310.0"  class="cube-left-gold"/>
  <polygon points="760.0,269.11786007241017 800.0,249.11786007241017 800.0,310.0 760.0,330.0" class="cube-right-gold"/>
  <polygon points="760.0,229.11786007241017 800.0,249.11786007241017 760.0,269.11786007241017 720.0,249.11786007241017"   class="cube-top-gold"/>
  <line x1="760.0" y1="249.11786007241017" x2="760.0" y2="129.11786007241017" class="data-ray"
    style="animation: rayStream 3.2s infinite linear 2.0s;"/>
</g>
<g style="animation: floatCube 4.4s infinite ease-in-out 3.1039996461849793s alternate;">
  <polygon points="640.0,240.05801503299784 680.0,260.05801503299784 680.0,330.0 640.0,310.0"  class="cube-left-hot"/>
  <polygon points="680.0,260.05801503299784 720.0,240.05801503299784 720.0,310.0 680.0,330.0" class="cube-right-hot"/>
  <polygon points="680.0,220.05801503299784 720.0,240.05801503299784 680.0,260.05801503299784 640.0,240.05801503299784"   class="cube-top-hot"/>
  <line x1="680.0" y1="240.05801503299784" x2="680.0" y2="120.05801503299784" class="data-ray"
    style="animation: rayStream 2.9s infinite linear 0.6s;"/>
</g>
<g style="animation: floatCube 4.4s infinite ease-in-out 1.526477146026147s alternate;">
  <polygon points="560.0,242.59003499194853 600.0,262.5900349919485 600.0,330.0 560.0,310.0"  class="cube-left"/>
  <polygon points="600.0,262.5900349919485 640.0,242.59003499194853 640.0,310.0 600.0,330.0" class="cube-right"/>
  <polygon points="600.0,222.59003499194853 640.0,242.59003499194853 600.0,262.5900349919485 560.0,242.59003499194853"   class="cube-top"/>
  <line x1="600.0" y1="242.59003499194853" x2="600.0" y2="122.59003499194853" class="data-ray"
    style="animation: rayStream 3.8s infinite linear 2.4s;"/>
</g>
<g style="animation: floatCube 3.5s infinite ease-in-out 1.2966242280186924s alternate;">
  <polygon points="480.0,244.68583239683875 520.0,264.68583239683875 520.0,330.0 480.0,310.0"  class="cube-left"/>
  <polygon points="520.0,264.68583239683875 560.0,244.68583239683875 560.0,310.0 520.0,330.0" class="cube-right"/>
  <polygon points="520.0,224.68583239683875 560.0,244.68583239683875 520.0,264.68583239683875 480.0,244.68583239683875"   class="cube-top"/>
  <line x1="520.0" y1="244.68583239683875" x2="520.0" y2="124.68583239683875" class="data-ray"
    style="animation: rayStream 2.2s infinite linear 1.5s;"/>
</g>
<g style="animation: floatCube 4.9s infinite ease-in-out 0.920458930386308s alternate;">
  <polygon points="400.0,263.85743313557634 440.0,283.85743313557634 440.0,330.0 400.0,310.0"  class="cube-left"/>
  <polygon points="440.0,283.85743313557634 480.0,263.85743313557634 480.0,310.0 440.0,330.0" class="cube-right"/>
  <polygon points="440.0,243.85743313557634 480.0,263.85743313557634 440.0,283.85743313557634 400.0,263.85743313557634"   class="cube-top"/>
  <line x1="440.0" y1="263.85743313557634" x2="440.0" y2="143.85743313557634" class="data-ray"
    style="animation: rayStream 2.7s infinite linear 2.5s;"/>
</g>
<g style="animation: floatCube 5.3s infinite ease-in-out 0.760835633763246s alternate;">
  <polygon points="320.0,265.7341361269008 360.0,285.7341361269008 360.0,330.0 320.0,310.0"  class="cube-left"/>
  <polygon points="360.0,285.7341361269008 400.0,265.7341361269008 400.0,310.0 360.0,330.0" class="cube-right"/>
  <polygon points="360.0,245.7341361269008 400.0,265.7341361269008 360.0,285.7341361269008 320.0,265.7341361269008"   class="cube-top"/>
  <line x1="360.0" y1="265.7341361269008" x2="360.0" y2="145.7341361269008" class="data-ray"
    style="animation: rayStream 3.3s infinite linear 0.7s;"/>
</g>
<g style="animation: floatCube 3.6s infinite ease-in-out 3.2232770073312316s alternate;">
  <polygon points="840.0,281.8797232138173 880.0,301.8797232138173 880.0,340.0 840.0,320.0"  class="cube-left"/>
  <polygon points="880.0,301.8797232138173 920.0,281.8797232138173 920.0,320.0 880.0,340.0" class="cube-right"/>
  <polygon points="880.0,261.8797232138173 920.0,281.8797232138173 880.0,301.8797232138173 840.0,281.8797232138173"   class="cube-top"/>
  <line x1="880.0" y1="281.8797232138173" x2="880.0" y2="161.87972321381727" class="data-ray"
    style="animation: rayStream 2.0s infinite linear 0.7s;"/>
</g>
<g style="animation: floatCube 4.4s infinite ease-in-out 0.18329753462264886s alternate;">
  <polygon points="760.0,268.6491256521797 800.0,288.6491256521797 800.0,340.0 760.0,320.0"  class="cube-left-gold"/>
  <polygon points="800.0,288.6491256521797 840.0,268.6491256521797 840.0,320.0 800.0,340.0" class="cube-right-gold"/>
  <polygon points="800.0,248.6491256521797 840.0,268.6491256521797 800.0,288.6491256521797 760.0,268.6491256521797"   class="cube-top-gold"/>
  <line x1="800.0" y1="268.6491256521797" x2="800.0" y2="148.6491256521797" class="data-ray"
    style="animation: rayStream 3.7s infinite linear 0.2s;"/>
</g>
<g style="animation: floatCube 4.2s infinite ease-in-out 1.2618121922363277s alternate;">
  <polygon points="680.0,261.1285578410769 720.0,281.1285578410769 720.0,340.0 680.0,320.0"  class="cube-left"/>
  <polygon points="720.0,281.1285578410769 760.0,261.1285578410769 760.0,320.0 720.0,340.0" class="cube-right"/>
  <polygon points="720.0,241.12855784107688 760.0,261.1285578410769 720.0,281.1285578410769 680.0,261.1285578410769"   class="cube-top"/>
  <line x1="720.0" y1="261.1285578410769" x2="720.0" y2="141.12855784107688" class="data-ray"
    style="animation: rayStream 3.3s infinite linear 0.6s;"/>
</g>
<g style="animation: floatCube 5.1s infinite ease-in-out 3.8843135104544726s alternate;">
  <polygon points="600.0,225.89344623279374 640.0,245.89344623279374 640.0,340.0 600.0,320.0"  class="cube-left"/>
  <polygon points="640.0,245.89344623279374 680.0,225.89344623279374 680.0,320.0 640.0,340.0" class="cube-right"/>
  <polygon points="640.0,205.89344623279374 680.0,225.89344623279374 640.0,245.89344623279374 600.0,225.89344623279374"   class="cube-top"/>
  <line x1="640.0" y1="225.89344623279374" x2="640.0" y2="105.89344623279374" class="data-ray"
    style="animation: rayStream 3.0s infinite linear 0.7s;"/>
</g>
<g style="animation: floatCube 5.0s infinite ease-in-out 3.514887511292737s alternate;">
  <polygon points="520.0,255.19278536842165 560.0,275.19278536842165 560.0,340.0 520.0,320.0"  class="cube-left-hot"/>
  <polygon points="560.0,275.19278536842165 600.0,255.19278536842165 600.0,320.0 560.0,340.0" class="cube-right-hot"/>
  <polygon points="560.0,235.19278536842165 600.0,255.19278536842165 560.0,275.19278536842165 520.0,255.19278536842165"   class="cube-top-hot"/>
  <line x1="560.0" y1="255.19278536842165" x2="560.0" y2="135.19278536842165" class="data-ray"
    style="animation: rayStream 2.0s infinite linear 2.3s;"/>
</g>
<g style="animation: floatCube 5.3s infinite ease-in-out 2.5244118290803956s alternate;">
  <polygon points="440.0,261.39347846645325 480.0,281.39347846645325 480.0,340.0 440.0,320.0"  class="cube-left"/>
  <polygon points="480.0,281.39347846645325 520.0,261.39347846645325 520.0,320.0 480.0,340.0" class="cube-right"/>
  <polygon points="480.0,241.39347846645325 520.0,261.39347846645325 480.0,281.39347846645325 440.0,261.39347846645325"   class="cube-top"/>
  <line x1="480.0" y1="261.39347846645325" x2="480.0" y2="141.39347846645325" class="data-ray"
    style="animation: rayStream 2.2s infinite linear 1.3s;"/>
</g>
<g style="animation: floatCube 3.5s infinite ease-in-out 1.1141805786677619s alternate;">
  <polygon points="360.0,272.5112835748886 400.0,292.5112835748886 400.0,340.0 360.0,320.0"  class="cube-left"/>
  <polygon points="400.0,292.5112835748886 440.0,272.5112835748886 440.0,320.0 400.0,340.0" class="cube-right"/>
  <polygon points="400.0,252.51128357488858 440.0,272.5112835748886 400.0,292.5112835748886 360.0,272.5112835748886"   class="cube-top"/>
  <line x1="400.0" y1="272.5112835748886" x2="400.0" y2="152.51128357488858" class="data-ray"
    style="animation: rayStream 3.9s infinite linear 1.6s;"/>
</g>
<g style="animation: floatCube 3.2s infinite ease-in-out 2.316721163265025s alternate;">
  <polygon points="280.0,297.26140214931513 320.0,317.26140214931513 320.0,340.0 280.0,320.0"  class="cube-left-hot"/>
  <polygon points="320.0,317.26140214931513 360.0,297.26140214931513 360.0,320.0 320.0,340.0" class="cube-right-hot"/>
  <polygon points="320.0,277.26140214931513 360.0,297.26140214931513 320.0,317.26140214931513 280.0,297.26140214931513"   class="cube-top-hot"/>
  <line x1="320.0" y1="297.26140214931513" x2="320.0" y2="177.26140214931513" class="data-ray"
    style="animation: rayStream 2.5s infinite linear 2.5s;"/>
</g>
<g style="animation: floatCube 4.4s infinite ease-in-out 0.6219179992471262s alternate;">
  <polygon points="880.0,302.351048467878 920.0,322.351048467878 920.0,350.0 880.0,330.0"  class="cube-left"/>
  <polygon points="920.0,322.351048467878 960.0,302.351048467878 960.0,330.0 920.0,350.0" class="cube-right"/>
  <polygon points="920.0,282.351048467878 960.0,302.351048467878 920.0,322.351048467878 880.0,302.351048467878"   class="cube-top"/>
  <line x1="920.0" y1="302.351048467878" x2="920.0" y2="182.351048467878" class="data-ray"
    style="animation: rayStream 3.6s infinite linear 2.0s;"/>
</g>
<g style="animation: floatCube 6.0s infinite ease-in-out 0.31916790769451s alternate;">
  <polygon points="800.0,294.7172270104469 840.0,314.7172270104469 840.0,350.0 800.0,330.0"  class="cube-left"/>
  <polygon points="840.0,314.7172270104469 880.0,294.7172270104469 880.0,330.0 840.0,350.0" class="cube-right"/>
  <polygon points="840.0,274.7172270104469 880.0,294.7172270104469 840.0,314.7172270104469 800.0,294.7172270104469"   class="cube-top"/>
  <line x1="840.0" y1="294.7172270104469" x2="840.0" y2="174.7172270104469" class="data-ray"
    style="animation: rayStream 3.2s infinite linear 2.9s;"/>
</g>
<g style="animation: floatCube 5.7s infinite ease-in-out 3.7716388573402178s alternate;">
  <polygon points="720.0,272.564216283423 760.0,292.564216283423 760.0,350.0 720.0,330.0"  class="cube-left"/>
  <polygon points="760.0,292.564216283423 800.0,272.564216283423 800.0,330.0 760.0,350.0" class="cube-right"/>
  <polygon points="760.0,252.56421628342298 800.0,272.564216283423 760.0,292.564216283423 720.0,272.564216283423"   class="cube-top"/>
  <line x1="760.0" y1="272.564216283423" x2="760.0" y2="152.56421628342298" class="data-ray"
    style="animation: rayStream 3.2s infinite linear 2.2s;"/>
</g>
<g style="animation: floatCube 4.5s infinite ease-in-out 2.8828872774407786s alternate;">
  <polygon points="640.0,236.17660893296505 680.0,256.17660893296505 680.0,350.0 640.0,330.0"  class="cube-left"/>
  <polygon points="680.0,256.17660893296505 720.0,236.17660893296505 720.0,330.0 680.0,350.0" class="cube-right"/>
  <polygon points="680.0,216.17660893296505 720.0,236.17660893296505 680.0,256.17660893296505 640.0,236.17660893296505"   class="cube-top"/>
  <line x1="680.0" y1="236.17660893296505" x2="680.0" y2="116.17660893296505" class="data-ray"
    style="animation: rayStream 3.7s infinite linear 1.6s;"/>
</g>
<g style="animation: floatCube 5.7s infinite ease-in-out 0.2317006659767502s alternate;">
  <polygon points="560.0,227.67745111713415 600.0,247.67745111713415 600.0,350.0 560.0,330.0"  class="cube-left"/>
  <polygon points="600.0,247.67745111713415 640.0,227.67745111713415 640.0,330.0 600.0,350.0" class="cube-right"/>
  <polygon points="600.0,207.67745111713415 640.0,227.67745111713415 600.0,247.67745111713415 560.0,227.67745111713415"   class="cube-top"/>
  <line x1="600.0" y1="227.67745111713415" x2="600.0" y2="107.67745111713415" class="data-ray"
    style="animation: rayStream 3.5s infinite linear 1.4s;"/>
</g>
<g style="animation: floatCube 3.8s infinite ease-in-out 3.438541601014986s alternate;">
  <polygon points="480.0,255.13174648566536 520.0,275.13174648566536 520.0,350.0 480.0,330.0"  class="cube-left-hot"/>
  <polygon points="520.0,275.13174648566536 560.0,255.13174648566536 560.0,330.0 520.0,350.0" class="cube-right-hot"/>
  <polygon points="520.0,235.13174648566536 560.0,255.13174648566536 520.0,275.13174648566536 480.0,255.13174648566536"   class="cube-top-hot"/>
  <line x1="520.0" y1="255.13174648566536" x2="520.0" y2="135.13174648566536" class="data-ray"
    style="animation: rayStream 2.5s infinite linear 1.9s;"/>
</g>
<g style="animation: floatCube 5.3s infinite ease-in-out 1.7725229802138278s alternate;">
  <polygon points="400.0,273.1022491262311 440.0,293.1022491262311 440.0,350.0 400.0,330.0"  class="cube-left-hot"/>
  <polygon points="440.0,293.1022491262311 480.0,273.1022491262311 480.0,330.0 440.0,350.0" class="cube-right-hot"/>
  <polygon points="440.0,253.10224912623107 480.0,273.1022491262311 440.0,293.1022491262311 400.0,273.1022491262311"   class="cube-top-hot"/>
  <line x1="440.0" y1="273.1022491262311" x2="440.0" y2="153.10224912623107" class="data-ray"
    style="animation: rayStream 3.0s infinite linear 1.9s;"/>
</g>
<g style="animation: floatCube 3.8s infinite ease-in-out 0.2286610916299323s alternate;">
  <polygon points="320.0,285.28831923876504 360.0,305.28831923876504 360.0,350.0 320.0,330.0"  class="cube-left-gold"/>
  <polygon points="360.0,305.28831923876504 400.0,285.28831923876504 400.0,330.0 360.0,350.0" class="cube-right-gold"/>
  <polygon points="360.0,265.28831923876504 400.0,285.28831923876504 360.0,305.28831923876504 320.0,285.28831923876504"   class="cube-top-gold"/>
  <line x1="360.0" y1="285.28831923876504" x2="360.0" y2="165.28831923876504" class="data-ray"
    style="animation: rayStream 2.2s infinite linear 0.9s;"/>
</g>
<g style="animation: floatCube 3.8s infinite ease-in-out 3.9938177634177694s alternate;">
  <polygon points="240.0,321.1189368827301 280.0,341.1189368827301 280.0,350.0 240.0,330.0"  class="cube-left"/>
  <polygon points="280.0,341.1189368827301 320.0,321.1189368827301 320.0,330.0 280.0,350.0" class="cube-right"/>
  <polygon points="280.0,301.1189368827301 320.0,321.1189368827301 280.0,341.1189368827301 240.0,321.1189368827301"   class="cube-top"/>
  <line x1="280.0" y1="321.1189368827301" x2="280.0" y2="201.1189368827301" class="data-ray"
    style="animation: rayStream 2.6s infinite linear 1.6s;"/>
</g>
<g style="animation: floatCube 3.4s infinite ease-in-out 1.1118944124403685s alternate;">
  <polygon points="840.0,313.0162734091691 880.0,333.0162734091691 880.0,360.0 840.0,340.0"  class="cube-left"/>
  <polygon points="880.0,333.0162734091691 920.0,313.0162734091691 920.0,340.0 880.0,360.0" class="cube-right"/>
  <polygon points="880.0,293.0162734091691 920.0,313.0162734091691 880.0,333.0162734091691 840.0,313.0162734091691"   class="cube-top"/>
  <line x1="880.0" y1="313.0162734091691" x2="880.0" y2="193.01627340916912" class="data-ray"
    style="animation: rayStream 2.5s infinite linear 2.1s;"/>
</g>
<g style="animation: floatCube 5.1s infinite ease-in-out 2.62175466117952s alternate;">
  <polygon points="760.0,271.3977916132438 800.0,291.3977916132438 800.0,360.0 760.0,340.0"  class="cube-left"/>
  <polygon points="800.0,291.3977916132438 840.0,271.3977916132438 840.0,340.0 800.0,360.0" class="cube-right"/>
  <polygon points="800.0,251.39779161324378 840.0,271.3977916132438 800.0,291.3977916132438 760.0,271.3977916132438"   class="cube-top"/>
  <line x1="800.0" y1="271.3977916132438" x2="800.0" y2="151.39779161324378" class="data-ray"
    style="animation: rayStream 2.1s infinite linear 1.2s;"/>
</g>
<g style="animation: floatCube 4.6s infinite ease-in-out 1.0673007598101711s alternate;">
  <polygon points="680.0,255.3257765691994 720.0,275.32577656919943 720.0,360.0 680.0,340.0"  class="cube-left"/>
  <polygon points="720.0,275.32577656919943 760.0,255.3257765691994 760.0,340.0 720.0,360.0" class="cube-right"/>
  <polygon points="720.0,235.3257765691994 760.0,255.3257765691994 720.0,275.32577656919943 680.0,255.3257765691994"   class="cube-top"/>
  <line x1="720.0" y1="255.3257765691994" x2="720.0" y2="135.3257765691994" class="data-ray"
    style="animation: rayStream 2.8s infinite linear 0.6s;"/>
</g>
<g style="animation: floatCube 4.3s infinite ease-in-out 0.3426138082715151s alternate;">
  <polygon points="600.0,229.6597120238788 640.0,249.6597120238788 640.0,360.0 600.0,340.0"  class="cube-left-hot"/>
  <polygon points="640.0,249.6597120238788 680.0,229.6597120238788 680.0,340.0 640.0,360.0" class="cube-right-hot"/>
  <polygon points="640.0,209.6597120238788 680.0,229.6597120238788 640.0,249.6597120238788 600.0,229.6597120238788"   class="cube-top-hot"/>
  <line x1="640.0" y1="229.6597120238788" x2="640.0" y2="109.6597120238788" class="data-ray"
    style="animation: rayStream 3.8s infinite linear 1.8s;"/>
</g>
<g style="animation: floatCube 5.1s infinite ease-in-out 2.6759111131851223s alternate;">
  <polygon points="520.0,253.8742795033404 560.0,273.8742795033404 560.0,360.0 520.0,340.0"  class="cube-left"/>
  <polygon points="560.0,273.8742795033404 600.0,253.8742795033404 600.0,340.0 560.0,360.0" class="cube-right"/>
  <polygon points="560.0,233.8742795033404 600.0,253.8742795033404 560.0,273.8742795033404 520.0,253.8742795033404"   class="cube-top"/>
  <line x1="560.0" y1="253.8742795033404" x2="560.0" y2="133.8742795033404" class="data-ray"
    style="animation: rayStream 3.7s infinite linear 2.3s;"/>
</g>
<g style="animation: floatCube 4.1s infinite ease-in-out 0.20235331809952495s alternate;">
  <polygon points="440.0,249.9366144971417 480.0,269.9366144971417 480.0,360.0 440.0,340.0"  class="cube-left"/>
  <polygon points="480.0,269.9366144971417 520.0,249.9366144971417 520.0,340.0 480.0,360.0" class="cube-right"/>
  <polygon points="480.0,229.9366144971417 520.0,249.9366144971417 480.0,269.9366144971417 440.0,249.9366144971417"   class="cube-top"/>
  <line x1="480.0" y1="249.9366144971417" x2="480.0" y2="129.9366144971417" class="data-ray"
    style="animation: rayStream 2.0s infinite linear 1.1s;"/>
</g>
<g style="animation: floatCube 5.3s infinite ease-in-out 3.4108795681931414s alternate;">
  <polygon points="360.0,280.1634925736547 400.0,300.1634925736547 400.0,360.0 360.0,340.0"  class="cube-left"/>
  <polygon points="400.0,300.1634925736547 440.0,280.1634925736547 440.0,340.0 400.0,360.0" class="cube-right"/>
  <polygon points="400.0,260.1634925736547 440.0,280.1634925736547 400.0,300.1634925736547 360.0,280.1634925736547"   class="cube-top"/>
  <line x1="400.0" y1="280.1634925736547" x2="400.0" y2="160.1634925736547" class="data-ray"
    style="animation: rayStream 3.7s infinite linear 2.9s;"/>
</g>
<g style="animation: floatCube 4.3s infinite ease-in-out 0.8526172490681616s alternate;">
  <polygon points="280.0,290.1171065643472 320.0,310.1171065643472 320.0,360.0 280.0,340.0"  class="cube-left"/>
  <polygon points="320.0,310.1171065643472 360.0,290.1171065643472 360.0,340.0 320.0,360.0" class="cube-right"/>
  <polygon points="320.0,270.1171065643472 360.0,290.1171065643472 320.0,310.1171065643472 280.0,290.1171065643472"   class="cube-top"/>
  <line x1="320.0" y1="290.1171065643472" x2="320.0" y2="170.11710656434718" class="data-ray"
    style="animation: rayStream 3.5s infinite linear 1.6s;"/>
</g>
<g style="animation: floatCube 4.8s infinite ease-in-out 1.4807238684675306s alternate;">
  <polygon points="880.0,321.4391346639461 920.0,341.4391346639461 920.0,370.0 880.0,350.0"  class="cube-left"/>
  <polygon points="920.0,341.4391346639461 960.0,321.4391346639461 960.0,350.0 920.0,370.0" class="cube-right"/>
  <polygon points="920.0,301.4391346639461 960.0,321.4391346639461 920.0,341.4391346639461 880.0,321.4391346639461"   class="cube-top"/>
  <line x1="920.0" y1="321.4391346639461" x2="920.0" y2="201.4391346639461" class="data-ray"
    style="animation: rayStream 2.4s infinite linear 0.7s;"/>
</g>
<g style="animation: floatCube 4.3s infinite ease-in-out 1.8354074103495952s alternate;">
  <polygon points="800.0,306.0132939620886 840.0,326.0132939620886 840.0,370.0 800.0,350.0"  class="cube-left-hot"/>
  <polygon points="840.0,326.0132939620886 880.0,306.0132939620886 880.0,350.0 840.0,370.0" class="cube-right-hot"/>
  <polygon points="840.0,286.0132939620886 880.0,306.0132939620886 840.0,326.0132939620886 800.0,306.0132939620886"   class="cube-top-hot"/>
  <line x1="840.0" y1="306.0132939620886" x2="840.0" y2="186.0132939620886" class="data-ray"
    style="animation: rayStream 2.1s infinite linear 1.0s;"/>
</g>
<g style="animation: floatCube 5.0s infinite ease-in-out 1.73906100267642s alternate;">
  <polygon points="720.0,276.0259800385448 760.0,296.0259800385448 760.0,370.0 720.0,350.0"  class="cube-left"/>
  <polygon points="760.0,296.0259800385448 800.0,276.0259800385448 800.0,350.0 760.0,370.0" class="cube-right"/>
  <polygon points="760.0,256.0259800385448 800.0,276.0259800385448 760.0,296.0259800385448 720.0,276.0259800385448"   class="cube-top"/>
  <line x1="760.0" y1="276.0259800385448" x2="760.0" y2="156.0259800385448" class="data-ray"
    style="animation: rayStream 2.8s infinite linear 0.5s;"/>
</g>
<g style="animation: floatCube 4.4s infinite ease-in-out 3.0424086610289263s alternate;">
  <polygon points="640.0,258.0477030984711 680.0,278.0477030984711 680.0,370.0 640.0,350.0"  class="cube-left"/>
  <polygon points="680.0,278.0477030984711 720.0,258.0477030984711 720.0,350.0 680.0,370.0" class="cube-right"/>
  <polygon points="680.0,238.04770309847112 720.0,258.0477030984711 680.0,278.0477030984711 640.0,258.0477030984711"   class="cube-top"/>
  <line x1="680.0" y1="258.0477030984711" x2="680.0" y2="138.04770309847112" class="data-ray"
    style="animation: rayStream 2.3s infinite linear 1.9s;"/>
</g>
<g style="animation: floatCube 3.1s infinite ease-in-out 3.742056962322684s alternate;">
  <polygon points="560.0,243.57289577888685 600.0,263.57289577888685 600.0,370.0 560.0,350.0"  class="cube-left"/>
  <polygon points="600.0,263.57289577888685 640.0,243.57289577888685 640.0,350.0 600.0,370.0" class="cube-right"/>
  <polygon points="600.0,223.57289577888685 640.0,243.57289577888685 600.0,263.57289577888685 560.0,243.57289577888685"   class="cube-top"/>
  <line x1="600.0" y1="243.57289577888685" x2="600.0" y2="123.57289577888685" class="data-ray"
    style="animation: rayStream 2.8s infinite linear 1.7s;"/>
</g>
<g style="animation: floatCube 3.1s infinite ease-in-out 3.875985029139005s alternate;">
  <polygon points="480.0,242.64894294558772 520.0,262.6489429455877 520.0,370.0 480.0,350.0"  class="cube-left-hot"/>
  <polygon points="520.0,262.6489429455877 560.0,242.64894294558772 560.0,350.0 520.0,370.0" class="cube-right-hot"/>
  <polygon points="520.0,222.64894294558772 560.0,242.64894294558772 520.0,262.6489429455877 480.0,242.64894294558772"   class="cube-top-hot"/>
  <line x1="520.0" y1="242.64894294558772" x2="520.0" y2="122.64894294558772" class="data-ray"
    style="animation: rayStream 3.3s infinite linear 0.4s;"/>
</g>
<g style="animation: floatCube 4.4s infinite ease-in-out 0.3204458609623475s alternate;">
  <polygon points="400.0,290.53185215775454 440.0,310.53185215775454 440.0,370.0 400.0,350.0"  class="cube-left-hot"/>
  <polygon points="440.0,310.53185215775454 480.0,290.53185215775454 480.0,350.0 440.0,370.0" class="cube-right-hot"/>
  <polygon points="440.0,270.53185215775454 480.0,290.53185215775454 440.0,310.53185215775454 400.0,290.53185215775454"   class="cube-top-hot"/>
  <line x1="440.0" y1="290.53185215775454" x2="440.0" y2="170.53185215775454" class="data-ray"
    style="animation: rayStream 2.1s infinite linear 1.1s;"/>
</g>
<g style="animation: floatCube 3.6s infinite ease-in-out 3.523456694745758s alternate;">
  <polygon points="320.0,309.9262385513965 360.0,329.9262385513965 360.0,370.0 320.0,350.0"  class="cube-left-hot"/>
  <polygon points="360.0,329.9262385513965 400.0,309.9262385513965 400.0,350.0 360.0,370.0" class="cube-right-hot"/>
  <polygon points="360.0,289.9262385513965 400.0,309.9262385513965 360.0,329.9262385513965 320.0,309.9262385513965"   class="cube-top-hot"/>
  <line x1="360.0" y1="309.9262385513965" x2="360.0" y2="189.92623855139652" class="data-ray"
    style="animation: rayStream 2.7s infinite linear 2.3s;"/>
</g>
<g style="animation: floatCube 4.1s infinite ease-in-out 0.3691938708509337s alternate;">
  <polygon points="240.0,313.3495732594984 280.0,333.3495732594984 280.0,370.0 240.0,350.0"  class="cube-left-hot"/>
  <polygon points="280.0,333.3495732594984 320.0,313.3495732594984 320.0,350.0 280.0,370.0" class="cube-right-hot"/>
  <polygon points="280.0,293.3495732594984 320.0,313.3495732594984 280.0,333.3495732594984 240.0,313.3495732594984"   class="cube-top-hot"/>
  <line x1="280.0" y1="313.3495732594984" x2="280.0" y2="193.3495732594984" class="data-ray"
    style="animation: rayStream 3.5s infinite linear 2.5s;"/>
</g>
<g style="animation: floatCube 3.8s infinite ease-in-out 2.245472536652603s alternate;">
  <polygon points="840.0,332.0535950050584 880.0,352.0535950050584 880.0,380.0 840.0,360.0"  class="cube-left"/>
  <polygon points="880.0,352.0535950050584 920.0,332.0535950050584 920.0,360.0 880.0,380.0" class="cube-right"/>
  <polygon points="880.0,312.0535950050584 920.0,332.0535950050584 880.0,352.0535950050584 840.0,332.0535950050584"   class="cube-top"/>
  <line x1="880.0" y1="332.0535950050584" x2="880.0" y2="212.0535950050584" class="data-ray"
    style="animation: rayStream 2.2s infinite linear 0.1s;"/>
</g>
<g style="animation: floatCube 4.6s infinite ease-in-out 3.5034117615127762s alternate;">
  <polygon points="760.0,304.0771092175476 800.0,324.0771092175476 800.0,380.0 760.0,360.0"  class="cube-left-hot"/>
  <polygon points="800.0,324.0771092175476 840.0,304.0771092175476 840.0,360.0 800.0,380.0" class="cube-right-hot"/>
  <polygon points="800.0,284.0771092175476 840.0,304.0771092175476 800.0,324.0771092175476 760.0,304.0771092175476"   class="cube-top-hot"/>
  <line x1="800.0" y1="304.0771092175476" x2="800.0" y2="184.07710921754762" class="data-ray"
    style="animation: rayStream 4.0s infinite linear 1.0s;"/>
</g>
<g style="animation: floatCube 5.0s infinite ease-in-out 1.9011295123949252s alternate;">
  <polygon points="680.0,272.802054760787 720.0,292.802054760787 720.0,380.0 680.0,360.0"  class="cube-left"/>
  <polygon points="720.0,292.802054760787 760.0,272.802054760787 760.0,360.0 720.0,380.0" class="cube-right"/>
  <polygon points="720.0,252.80205476078697 760.0,272.802054760787 720.0,292.802054760787 680.0,272.802054760787"   class="cube-top"/>
  <line x1="720.0" y1="272.802054760787" x2="720.0" y2="152.80205476078697" class="data-ray"
    style="animation: rayStream 3.6s infinite linear 2.0s;"/>
</g>
<g style="animation: floatCube 5.3s infinite ease-in-out 3.1384776971630135s alternate;">
  <polygon points="600.0,258.8687072002415 640.0,278.8687072002415 640.0,380.0 600.0,360.0"  class="cube-left"/>
  <polygon points="640.0,278.8687072002415 680.0,258.8687072002415 680.0,360.0 640.0,380.0" class="cube-right"/>
  <polygon points="640.0,238.8687072002415 680.0,258.8687072002415 640.0,278.8687072002415 600.0,258.8687072002415"   class="cube-top"/>
  <line x1="640.0" y1="258.8687072002415" x2="640.0" y2="138.8687072002415" class="data-ray"
    style="animation: rayStream 3.9s infinite linear 0.6s;"/>
</g>
<g style="animation: floatCube 3.1s infinite ease-in-out 0.6652444424156561s alternate;">
  <polygon points="520.0,248.20899050975618 560.0,268.2089905097562 560.0,380.0 520.0,360.0"  class="cube-left-hot"/>
  <polygon points="560.0,268.2089905097562 600.0,248.20899050975618 600.0,360.0 560.0,380.0" class="cube-right-hot"/>
  <polygon points="560.0,228.20899050975618 600.0,248.20899050975618 560.0,268.2089905097562 520.0,248.20899050975618"   class="cube-top-hot"/>
  <line x1="560.0" y1="248.20899050975618" x2="560.0" y2="128.20899050975618" class="data-ray"
    style="animation: rayStream 2.3s infinite linear 0.4s;"/>
</g>
<g style="animation: floatCube 5.0s infinite ease-in-out 2.7008502144163606s alternate;">
  <polygon points="440.0,290.20233881057493 480.0,310.20233881057493 480.0,380.0 440.0,360.0"  class="cube-left"/>
  <polygon points="480.0,310.20233881057493 520.0,290.20233881057493 520.0,360.0 480.0,380.0" class="cube-right"/>
  <polygon points="480.0,270.20233881057493 520.0,290.20233881057493 480.0,310.20233881057493 440.0,290.20233881057493"   class="cube-top"/>
  <line x1="480.0" y1="290.20233881057493" x2="480.0" y2="170.20233881057493" class="data-ray"
    style="animation: rayStream 3.1s infinite linear 0.7s;"/>
</g>
<g style="animation: floatCube 5.1s infinite ease-in-out 0.6309873294289279s alternate;">
  <polygon points="360.0,291.31071313288754 400.0,311.31071313288754 400.0,380.0 360.0,360.0"  class="cube-left"/>
  <polygon points="400.0,311.31071313288754 440.0,291.31071313288754 440.0,360.0 400.0,380.0" class="cube-right"/>
  <polygon points="400.0,271.31071313288754 440.0,291.31071313288754 400.0,311.31071313288754 360.0,291.31071313288754"   class="cube-top"/>
  <line x1="400.0" y1="291.31071313288754" x2="400.0" y2="171.31071313288754" class="data-ray"
    style="animation: rayStream 3.5s infinite linear 0.5s;"/>
</g>
<g style="animation: floatCube 4.8s infinite ease-in-out 0.0141827563511292s alternate;">
  <polygon points="280.0,327.29272682308823 320.0,347.29272682308823 320.0,380.0 280.0,360.0"  class="cube-left"/>
  <polygon points="320.0,347.29272682308823 360.0,327.29272682308823 360.0,360.0 320.0,380.0" class="cube-right"/>
  <polygon points="320.0,307.29272682308823 360.0,327.29272682308823 320.0,347.29272682308823 280.0,327.29272682308823"   class="cube-top"/>
  <line x1="320.0" y1="327.29272682308823" x2="320.0" y2="207.29272682308823" class="data-ray"
    style="animation: rayStream 3.5s infinite linear 0.3s;"/>
</g>
<g style="animation: floatCube 5.5s infinite ease-in-out 3.591291534409908s alternate;">
  <polygon points="880.0,355.4129820618368 920.0,375.4129820618368 920.0,390.0 880.0,370.0"  class="cube-left"/>
  <polygon points="920.0,375.4129820618368 960.0,355.4129820618368 960.0,370.0 920.0,390.0" class="cube-right"/>
  <polygon points="920.0,335.4129820618368 960.0,355.4129820618368 920.0,375.4129820618368 880.0,355.4129820618368"   class="cube-top"/>
  <line x1="920.0" y1="355.4129820618368" x2="920.0" y2="235.41298206183677" class="data-ray"
    style="animation: rayStream 3.9s infinite linear 0.3s;"/>
</g>
<g style="animation: floatCube 3.1s infinite ease-in-out 0.7146075221205255s alternate;">
  <polygon points="800.0,333.6525037574605 840.0,353.6525037574605 840.0,390.0 800.0,370.0"  class="cube-left"/>
  <polygon points="840.0,353.6525037574605 880.0,333.6525037574605 880.0,370.0 840.0,390.0" class="cube-right"/>
  <polygon points="840.0,313.6525037574605 880.0,333.6525037574605 840.0,353.6525037574605 800.0,333.6525037574605"   class="cube-top"/>
  <line x1="840.0" y1="333.6525037574605" x2="840.0" y2="213.65250375746052" class="data-ray"
    style="animation: rayStream 2.6s infinite linear 2.0s;"/>
</g>
<g style="animation: floatCube 5.9s infinite ease-in-out 3.4897321643410297s alternate;">
  <polygon points="720.0,304.10233475784577 760.0,324.10233475784577 760.0,390.0 720.0,370.0"  class="cube-left"/>
  <polygon points="760.0,324.10233475784577 800.0,304.10233475784577 800.0,370.0 760.0,390.0" class="cube-right"/>
  <polygon points="760.0,284.10233475784577 800.0,304.10233475784577 760.0,324.10233475784577 720.0,304.10233475784577"   class="cube-top"/>
  <line x1="760.0" y1="304.10233475784577" x2="760.0" y2="184.10233475784577" class="data-ray"
    style="animation: rayStream 2.8s infinite linear 2.1s;"/>
</g>
<g style="animation: floatCube 3.2s infinite ease-in-out 0.3877232569152933s alternate;">
  <polygon points="640.0,277.7750900670007 680.0,297.7750900670007 680.0,390.0 640.0,370.0"  class="cube-left"/>
  <polygon points="680.0,297.7750900670007 720.0,277.7750900670007 720.0,370.0 680.0,390.0" class="cube-right"/>
  <polygon points="680.0,257.7750900670007 720.0,277.7750900670007 680.0,297.7750900670007 640.0,277.7750900670007"   class="cube-top"/>
  <line x1="680.0" y1="277.7750900670007" x2="680.0" y2="157.7750900670007" class="data-ray"
    style="animation: rayStream 3.4s infinite linear 1.9s;"/>
</g>
<g style="animation: floatCube 3.3s infinite ease-in-out 1.6041611701978105s alternate;">
  <polygon points="560.0,278.05818323444794 600.0,298.05818323444794 600.0,390.0 560.0,370.0"  class="cube-left"/>
  <polygon points="600.0,298.05818323444794 640.0,278.05818323444794 640.0,370.0 600.0,390.0" class="cube-right"/>
  <polygon points="600.0,258.05818323444794 640.0,278.05818323444794 600.0,298.05818323444794 560.0,278.05818323444794"   class="cube-top"/>
  <line x1="600.0" y1="278.05818323444794" x2="600.0" y2="158.05818323444794" class="data-ray"
    style="animation: rayStream 3.5s infinite linear 2.6s;"/>
</g>
<g style="animation: floatCube 4.8s infinite ease-in-out 3.56114925651775s alternate;">
  <polygon points="480.0,294.94388314997207 520.0,314.94388314997207 520.0,390.0 480.0,370.0"  class="cube-left"/>
  <polygon points="520.0,314.94388314997207 560.0,294.94388314997207 560.0,370.0 520.0,390.0" class="cube-right"/>
  <polygon points="520.0,274.94388314997207 560.0,294.94388314997207 520.0,314.94388314997207 480.0,294.94388314997207"   class="cube-top"/>
  <line x1="520.0" y1="294.94388314997207" x2="520.0" y2="174.94388314997207" class="data-ray"
    style="animation: rayStream 2.2s infinite linear 3.0s;"/>
</g>
<g style="animation: floatCube 5.3s infinite ease-in-out 2.4467110629038005s alternate;">
  <polygon points="400.0,295.58409392349984 440.0,315.58409392349984 440.0,390.0 400.0,370.0"  class="cube-left-gold"/>
  <polygon points="440.0,315.58409392349984 480.0,295.58409392349984 480.0,370.0 440.0,390.0" class="cube-right-gold"/>
  <polygon points="440.0,275.58409392349984 480.0,295.58409392349984 440.0,315.58409392349984 400.0,295.58409392349984"   class="cube-top-gold"/>
  <line x1="440.0" y1="295.58409392349984" x2="440.0" y2="175.58409392349984" class="data-ray"
    style="animation: rayStream 2.7s infinite linear 1.3s;"/>
</g>
<g style="animation: floatCube 4.1s infinite ease-in-out 1.0478210497373928s alternate;">
  <polygon points="320.0,318.42059858940445 360.0,338.42059858940445 360.0,390.0 320.0,370.0"  class="cube-left-gold"/>
  <polygon points="360.0,338.42059858940445 400.0,318.42059858940445 400.0,370.0 360.0,390.0" class="cube-right-gold"/>
  <polygon points="360.0,298.42059858940445 400.0,318.42059858940445 360.0,338.42059858940445 320.0,318.42059858940445"   class="cube-top-gold"/>
  <line x1="360.0" y1="318.42059858940445" x2="360.0" y2="198.42059858940445" class="data-ray"
    style="animation: rayStream 3.0s infinite linear 1.0s;"/>
</g>
<g style="animation: floatCube 5.5s infinite ease-in-out 3.1204649674857707s alternate;">
  <polygon points="240.0,355.8093381408371 280.0,375.8093381408371 280.0,390.0 240.0,370.0"  class="cube-left"/>
  <polygon points="280.0,375.8093381408371 320.0,355.8093381408371 320.0,370.0 280.0,390.0" class="cube-right"/>
  <polygon points="280.0,335.8093381408371 320.0,355.8093381408371 280.0,375.8093381408371 240.0,355.8093381408371"   class="cube-top"/>
  <line x1="280.0" y1="355.8093381408371" x2="280.0" y2="235.8093381408371" class="data-ray"
    style="animation: rayStream 3.6s infinite linear 0.3s;"/>
</g>
<g style="animation: floatCube 5.9s infinite ease-in-out 1.1937791657945316s alternate;">
  <polygon points="840.0,338.7838017338074 880.0,358.7838017338074 880.0,400.0 840.0,380.0"  class="cube-left-hot"/>
  <polygon points="880.0,358.7838017338074 920.0,338.7838017338074 920.0,380.0 880.0,400.0" class="cube-right-hot"/>
  <polygon points="880.0,318.7838017338074 920.0,338.7838017338074 880.0,358.7838017338074 840.0,338.7838017338074"   class="cube-top-hot"/>
  <line x1="880.0" y1="338.7838017338074" x2="880.0" y2="218.78380173380742" class="data-ray"
    style="animation: rayStream 3.3s infinite linear 2.5s;"/>
</g>
<g style="animation: floatCube 5.1s infinite ease-in-out 2.1571843551178334s alternate;">
  <polygon points="760.0,333.27555180385593 800.0,353.27555180385593 800.0,400.0 760.0,380.0"  class="cube-left"/>
  <polygon points="800.0,353.27555180385593 840.0,333.27555180385593 840.0,380.0 800.0,400.0" class="cube-right"/>
  <polygon points="800.0,313.27555180385593 840.0,333.27555180385593 800.0,353.27555180385593 760.0,333.27555180385593"   class="cube-top"/>
  <line x1="800.0" y1="333.27555180385593" x2="800.0" y2="213.27555180385593" class="data-ray"
    style="animation: rayStream 2.9s infinite linear 2.2s;"/>
</g>
<g style="animation: floatCube 5.9s infinite ease-in-out 1.8680986721467s alternate;">
  <polygon points="680.0,315.0684645278087 720.0,335.0684645278087 720.0,400.0 680.0,380.0"  class="cube-left"/>
  <polygon points="720.0,335.0684645278087 760.0,315.0684645278087 760.0,380.0 720.0,400.0" class="cube-right"/>
  <polygon points="720.0,295.0684645278087 760.0,315.0684645278087 720.0,335.0684645278087 680.0,315.0684645278087"   class="cube-top"/>
  <line x1="720.0" y1="315.0684645278087" x2="720.0" y2="195.06846452780871" class="data-ray"
    style="animation: rayStream 2.5s infinite linear 2.4s;"/>
</g>
<g style="animation: floatCube 4.6s infinite ease-in-out 3.9412353751189038s alternate;">
  <polygon points="600.0,314.0180256408313 640.0,334.0180256408313 640.0,400.0 600.0,380.0"  class="cube-left"/>
  <polygon points="640.0,334.0180256408313 680.0,314.0180256408313 680.0,380.0 640.0,400.0" class="cube-right"/>
  <polygon points="640.0,294.0180256408313 680.0,314.0180256408313 640.0,334.0180256408313 600.0,314.0180256408313"   class="cube-top"/>
  <line x1="640.0" y1="314.0180256408313" x2="640.0" y2="194.0180256408313" class="data-ray"
    style="animation: rayStream 3.0s infinite linear 1.3s;"/>
</g>
<g style="animation: floatCube 5.2s infinite ease-in-out 2.4775260413284124s alternate;">
  <polygon points="520.0,308.3906272063379 560.0,328.3906272063379 560.0,400.0 520.0,380.0"  class="cube-left"/>
  <polygon points="560.0,328.3906272063379 600.0,308.3906272063379 600.0,380.0 560.0,400.0" class="cube-right"/>
  <polygon points="560.0,288.3906272063379 600.0,308.3906272063379 560.0,328.3906272063379 520.0,308.3906272063379"   class="cube-top"/>
  <line x1="560.0" y1="308.3906272063379" x2="560.0" y2="188.3906272063379" class="data-ray"
    style="animation: rayStream 2.5s infinite linear 2.6s;"/>
</g>
<g style="animation: floatCube 5.5s infinite ease-in-out 0.031292428608631795s alternate;">
  <polygon points="440.0,298.3830080910549 480.0,318.3830080910549 480.0,400.0 440.0,380.0"  class="cube-left-gold"/>
  <polygon points="480.0,318.3830080910549 520.0,298.3830080910549 520.0,380.0 480.0,400.0" class="cube-right-gold"/>
  <polygon points="480.0,278.3830080910549 520.0,298.3830080910549 480.0,318.3830080910549 440.0,298.3830080910549"   class="cube-top-gold"/>
  <line x1="480.0" y1="298.3830080910549" x2="480.0" y2="178.38300809105488" class="data-ray"
    style="animation: rayStream 2.2s infinite linear 2.6s;"/>
</g>
<g style="animation: floatCube 3.7s infinite ease-in-out 1.7107476759227174s alternate;">
  <polygon points="360.0,323.73276275944465 400.0,343.73276275944465 400.0,400.0 360.0,380.0"  class="cube-left"/>
  <polygon points="400.0,343.73276275944465 440.0,323.73276275944465 440.0,380.0 400.0,400.0" class="cube-right"/>
  <polygon points="400.0,303.73276275944465 440.0,323.73276275944465 400.0,343.73276275944465 360.0,323.73276275944465"   class="cube-top"/>
  <line x1="400.0" y1="323.73276275944465" x2="400.0" y2="203.73276275944465" class="data-ray"
    style="animation: rayStream 2.9s infinite linear 1.8s;"/>
</g>
<g style="animation: floatCube 4.1s infinite ease-in-out 2.482646040602851s alternate;">
  <polygon points="280.0,339.63859587062177 320.0,359.63859587062177 320.0,400.0 280.0,380.0"  class="cube-left"/>
  <polygon points="320.0,359.63859587062177 360.0,339.63859587062177 360.0,380.0 320.0,400.0" class="cube-right"/>
  <polygon points="320.0,319.63859587062177 360.0,339.63859587062177 320.0,359.63859587062177 280.0,339.63859587062177"   class="cube-top"/>
  <line x1="320.0" y1="339.63859587062177" x2="320.0" y2="219.63859587062177" class="data-ray"
    style="animation: rayStream 2.1s infinite linear 2.6s;"/>
</g>
<g style="animation: floatCube 3.5s infinite ease-in-out 1.2468651652035798s alternate;">
  <polygon points="800.0,349.6863801447853 840.0,369.6863801447853 840.0,410.0 800.0,390.0"  class="cube-left"/>
  <polygon points="840.0,369.6863801447853 880.0,349.6863801447853 880.0,390.0 840.0,410.0" class="cube-right"/>
  <polygon points="840.0,329.6863801447853 880.0,349.6863801447853 840.0,369.6863801447853 800.0,349.6863801447853"   class="cube-top"/>
  <line x1="840.0" y1="349.6863801447853" x2="840.0" y2="229.6863801447853" class="data-ray"
    style="animation: rayStream 2.4s infinite linear 2.4s;"/>
</g>
<g style="animation: floatCube 4.0s infinite ease-in-out 3.9366608454638645s alternate;">
  <polygon points="720.0,332.12772451620447 760.0,352.12772451620447 760.0,410.0 720.0,390.0"  class="cube-left-gold"/>
  <polygon points="760.0,352.12772451620447 800.0,332.12772451620447 800.0,390.0 760.0,410.0" class="cube-right-gold"/>
  <polygon points="760.0,312.12772451620447 800.0,332.12772451620447 760.0,352.12772451620447 720.0,332.12772451620447"   class="cube-top-gold"/>
  <line x1="760.0" y1="332.12772451620447" x2="760.0" y2="212.12772451620447" class="data-ray"
    style="animation: rayStream 3.8s infinite linear 2.1s;"/>
</g>
<g style="animation: floatCube 3.8s infinite ease-in-out 1.8200334693565732s alternate;">
  <polygon points="640.0,332.6403508175295 680.0,352.6403508175295 680.0,410.0 640.0,390.0"  class="cube-left-gold"/>
  <polygon points="680.0,352.6403508175295 720.0,332.6403508175295 720.0,390.0 680.0,410.0" class="cube-right-gold"/>
  <polygon points="680.0,312.6403508175295 720.0,332.6403508175295 680.0,352.6403508175295 640.0,332.6403508175295"   class="cube-top-gold"/>
  <line x1="680.0" y1="332.6403508175295" x2="680.0" y2="212.6403508175295" class="data-ray"
    style="animation: rayStream 2.0s infinite linear 2.8s;"/>
</g>
<g style="animation: floatCube 3.3s infinite ease-in-out 2.0911308621278355s alternate;">
  <polygon points="560.0,322.67808653586286 600.0,342.67808653586286 600.0,410.0 560.0,390.0"  class="cube-left"/>
  <polygon points="600.0,342.67808653586286 640.0,322.67808653586286 640.0,390.0 600.0,410.0" class="cube-right"/>
  <polygon points="600.0,302.67808653586286 640.0,322.67808653586286 600.0,342.67808653586286 560.0,322.67808653586286"   class="cube-top"/>
  <line x1="600.0" y1="322.67808653586286" x2="600.0" y2="202.67808653586286" class="data-ray"
    style="animation: rayStream 3.4s infinite linear 1.5s;"/>
</g>
<g style="animation: floatCube 5.3s infinite ease-in-out 2.6535548598643093s alternate;">
  <polygon points="480.0,316.08331850923025 520.0,336.08331850923025 520.0,410.0 480.0,390.0"  class="cube-left"/>
  <polygon points="520.0,336.08331850923025 560.0,316.08331850923025 560.0,390.0 520.0,410.0" class="cube-right"/>
  <polygon points="520.0,296.08331850923025 560.0,316.08331850923025 520.0,336.08331850923025 480.0,316.08331850923025"   class="cube-top"/>
  <line x1="520.0" y1="316.08331850923025" x2="520.0" y2="196.08331850923025" class="data-ray"
    style="animation: rayStream 3.4s infinite linear 1.9s;"/>
</g>
<g style="animation: floatCube 4.5s infinite ease-in-out 3.532425573200572s alternate;">
  <polygon points="400.0,353.7099090117498 440.0,373.7099090117498 440.0,410.0 400.0,390.0"  class="cube-left"/>
  <polygon points="440.0,373.7099090117498 480.0,353.7099090117498 480.0,390.0 440.0,410.0" class="cube-right"/>
  <polygon points="440.0,333.7099090117498 480.0,353.7099090117498 440.0,373.7099090117498 400.0,353.7099090117498"   class="cube-top"/>
  <line x1="440.0" y1="353.7099090117498" x2="440.0" y2="233.7099090117498" class="data-ray"
    style="animation: rayStream 3.6s infinite linear 0.3s;"/>
</g>
<g style="animation: floatCube 3.7s infinite ease-in-out 3.458422784879856s alternate;">
  <polygon points="320.0,366.9477120675184 360.0,386.9477120675184 360.0,410.0 320.0,390.0"  class="cube-left-hot"/>
  <polygon points="360.0,386.9477120675184 400.0,366.9477120675184 400.0,390.0 360.0,410.0" class="cube-right-hot"/>
  <polygon points="360.0,346.9477120675184 400.0,366.9477120675184 360.0,386.9477120675184 320.0,366.9477120675184"   class="cube-top-hot"/>
  <line x1="360.0" y1="366.9477120675184" x2="360.0" y2="246.9477120675184" class="data-ray"
    style="animation: rayStream 3.4s infinite linear 0.9s;"/>
</g>
<g style="animation: floatCube 4.7s infinite ease-in-out 1.3572104215798526s alternate;">
  <polygon points="760.0,377.0474638654412 800.0,397.0474638654412 800.0,420.0 760.0,400.0"  class="cube-left"/>
  <polygon points="800.0,397.0474638654412 840.0,377.0474638654412 840.0,400.0 800.0,420.0" class="cube-right"/>
  <polygon points="800.0,357.0474638654412 840.0,377.0474638654412 800.0,397.0474638654412 760.0,377.0474638654412"   class="cube-top"/>
  <line x1="800.0" y1="377.0474638654412" x2="800.0" y2="257.0474638654412" class="data-ray"
    style="animation: rayStream 2.9s infinite linear 1.6s;"/>
</g>
<g style="animation: floatCube 4.3s infinite ease-in-out 3.9816907579708554s alternate;">
  <polygon points="680.0,353.27946543017765 720.0,373.27946543017765 720.0,420.0 680.0,400.0"  class="cube-left-hot"/>
  <polygon points="720.0,373.27946543017765 760.0,353.27946543017765 760.0,400.0 720.0,420.0" class="cube-right-hot"/>
  <polygon points="720.0,333.27946543017765 760.0,353.27946543017765 720.0,373.27946543017765 680.0,353.27946543017765"   class="cube-top-hot"/>
  <line x1="720.0" y1="353.27946543017765" x2="720.0" y2="233.27946543017765" class="data-ray"
    style="animation: rayStream 3.5s infinite linear 1.0s;"/>
</g>
<g style="animation: floatCube 5.1s infinite ease-in-out 2.864767203157659s alternate;">
  <polygon points="600.0,329.647632675331 640.0,349.647632675331 640.0,420.0 600.0,400.0"  class="cube-left"/>
  <polygon points="640.0,349.647632675331 680.0,329.647632675331 680.0,400.0 640.0,420.0" class="cube-right"/>
  <polygon points="640.0,309.647632675331 680.0,329.647632675331 640.0,349.647632675331 600.0,329.647632675331"   class="cube-top"/>
  <line x1="640.0" y1="329.647632675331" x2="640.0" y2="209.647632675331" class="data-ray"
    style="animation: rayStream 2.5s infinite linear 0.8s;"/>
</g>
<g style="animation: floatCube 3.4s infinite ease-in-out 0.46171468167640883s alternate;">
  <polygon points="520.0,329.52092028961073 560.0,349.52092028961073 560.0,420.0 520.0,400.0"  class="cube-left"/>
  <polygon points="560.0,349.52092028961073 600.0,329.52092028961073 600.0,400.0 560.0,420.0" class="cube-right"/>
  <polygon points="560.0,309.52092028961073 600.0,329.52092028961073 560.0,349.52092028961073 520.0,329.52092028961073"   class="cube-top"/>
  <line x1="560.0" y1="329.52092028961073" x2="560.0" y2="209.52092028961073" class="data-ray"
    style="animation: rayStream 2.4s infinite linear 0.4s;"/>
</g>
<g style="animation: floatCube 4.6s infinite ease-in-out 3.338380079544067s alternate;">
  <polygon points="440.0,338.8518328630858 480.0,358.8518328630858 480.0,420.0 440.0,400.0"  class="cube-left"/>
  <polygon points="480.0,358.8518328630858 520.0,338.8518328630858 520.0,400.0 480.0,420.0" class="cube-right"/>
  <polygon points="480.0,318.8518328630858 520.0,338.8518328630858 480.0,358.8518328630858 440.0,338.8518328630858"   class="cube-top"/>
  <line x1="480.0" y1="338.8518328630858" x2="480.0" y2="218.8518328630858" class="data-ray"
    style="animation: rayStream 3.5s infinite linear 0.6s;"/>
</g>
<g style="animation: floatCube 3.6s infinite ease-in-out 3.5256648186532975s alternate;">
  <polygon points="360.0,350.7138190120711 400.0,370.7138190120711 400.0,420.0 360.0,400.0"  class="cube-left-hot"/>
  <polygon points="400.0,370.7138190120711 440.0,350.7138190120711 440.0,400.0 400.0,420.0" class="cube-right-hot"/>
  <polygon points="400.0,330.7138190120711 440.0,350.7138190120711 400.0,370.7138190120711 360.0,350.7138190120711"   class="cube-top-hot"/>
  <line x1="400.0" y1="350.7138190120711" x2="400.0" y2="230.7138190120711" class="data-ray"
    style="animation: rayStream 3.0s infinite linear 2.2s;"/>
</g>
<g style="animation: floatCube 5.9s infinite ease-in-out 0.6191873010962565s alternate;">
  <polygon points="720.0,374.911262515316 760.0,394.911262515316 760.0,430.0 720.0,410.0"  class="cube-left-gold"/>
  <polygon points="760.0,394.911262515316 800.0,374.911262515316 800.0,410.0 760.0,430.0" class="cube-right-gold"/>
  <polygon points="760.0,354.911262515316 800.0,374.911262515316 760.0,394.911262515316 720.0,374.911262515316"   class="cube-top-gold"/>
  <line x1="760.0" y1="374.911262515316" x2="760.0" y2="254.91126251531603" class="data-ray"
    style="animation: rayStream 3.0s infinite linear 0.8s;"/>
</g>
<g style="animation: floatCube 3.3s infinite ease-in-out 2.686760891839885s alternate;">
  <polygon points="640.0,374.3935967015179 680.0,394.3935967015179 680.0,430.0 640.0,410.0"  class="cube-left"/>
  <polygon points="680.0,394.3935967015179 720.0,374.3935967015179 720.0,410.0 680.0,430.0" class="cube-right"/>
  <polygon points="680.0,354.3935967015179 720.0,374.3935967015179 680.0,394.3935967015179 640.0,374.3935967015179"   class="cube-top"/>
  <line x1="680.0" y1="374.3935967015179" x2="680.0" y2="254.39359670151788" class="data-ray"
    style="animation: rayStream 2.4s infinite linear 0.7s;"/>
</g>
<g style="animation: floatCube 3.5s infinite ease-in-out 1.0893928492592653s alternate;">
  <polygon points="560.0,374.671171662626 600.0,394.671171662626 600.0,430.0 560.0,410.0"  class="cube-left"/>
  <polygon points="600.0,394.671171662626 640.0,374.671171662626 640.0,410.0 600.0,430.0" class="cube-right"/>
  <polygon points="600.0,354.671171662626 640.0,374.671171662626 600.0,394.671171662626 560.0,374.671171662626"   class="cube-top"/>
  <line x1="600.0" y1="374.671171662626" x2="600.0" y2="254.67117166262602" class="data-ray"
    style="animation: rayStream 2.0s infinite linear 1.6s;"/>
</g>
<g style="animation: floatCube 3.8s infinite ease-in-out 0.5097820771285551s alternate;">
  <polygon points="480.0,364.07888828529946 520.0,384.07888828529946 520.0,430.0 480.0,410.0"  class="cube-left"/>
  <polygon points="520.0,384.07888828529946 560.0,364.07888828529946 560.0,410.0 520.0,430.0" class="cube-right"/>
  <polygon points="520.0,344.07888828529946 560.0,364.07888828529946 520.0,384.07888828529946 480.0,364.07888828529946"   class="cube-top"/>
  <line x1="520.0" y1="364.07888828529946" x2="520.0" y2="244.07888828529946" class="data-ray"
    style="animation: rayStream 3.9s infinite linear 1.7s;"/>
</g>
<g style="animation: floatCube 5.1s infinite ease-in-out 1.3287418717857147s alternate;">
  <polygon points="400.0,390.8407213605389 440.0,410.8407213605389 440.0,430.0 400.0,410.0"  class="cube-left-gold"/>
  <polygon points="440.0,410.8407213605389 480.0,390.8407213605389 480.0,410.0 440.0,430.0" class="cube-right-gold"/>
  <polygon points="440.0,370.8407213605389 480.0,390.8407213605389 440.0,410.8407213605389 400.0,390.8407213605389"   class="cube-top-gold"/>
  <line x1="440.0" y1="390.8407213605389" x2="440.0" y2="270.8407213605389" class="data-ray"
    style="animation: rayStream 2.3s infinite linear 2.6s;"/>
</g>
<g style="animation: floatCube 4.5s infinite ease-in-out 3.0074579696576085s alternate;">
  <polygon points="680.0,397.1627245201892 720.0,417.1627245201892 720.0,440.0 680.0,420.0"  class="cube-left"/>
  <polygon points="720.0,417.1627245201892 760.0,397.1627245201892 760.0,420.0 720.0,440.0" class="cube-right"/>
  <polygon points="720.0,377.1627245201892 760.0,397.1627245201892 720.0,417.1627245201892 680.0,397.1627245201892"   class="cube-top"/>
  <line x1="720.0" y1="397.1627245201892" x2="720.0" y2="277.1627245201892" class="data-ray"
    style="animation: rayStream 3.7s infinite linear 1.7s;"/>
</g>
<g style="animation: floatCube 4.4s infinite ease-in-out 0.8143892493098117s alternate;">
  <polygon points="600.0,381.85510518909325 640.0,401.85510518909325 640.0,440.0 600.0,420.0"  class="cube-left-gold"/>
  <polygon points="640.0,401.85510518909325 680.0,381.85510518909325 680.0,420.0 640.0,440.0" class="cube-right-gold"/>
  <polygon points="640.0,361.85510518909325 680.0,381.85510518909325 640.0,401.85510518909325 600.0,381.85510518909325"   class="cube-top-gold"/>
  <line x1="640.0" y1="381.85510518909325" x2="640.0" y2="261.85510518909325" class="data-ray"
    style="animation: rayStream 2.9s infinite linear 0.6s;"/>
</g>
<g style="animation: floatCube 3.2s infinite ease-in-out 3.184489219552167s alternate;">
  <polygon points="520.0,390.752249502096 560.0,410.752249502096 560.0,440.0 520.0,420.0"  class="cube-left-hot"/>
  <polygon points="560.0,410.752249502096 600.0,390.752249502096 600.0,420.0 560.0,440.0" class="cube-right-hot"/>
  <polygon points="560.0,370.752249502096 600.0,390.752249502096 560.0,410.752249502096 520.0,390.752249502096"   class="cube-top-hot"/>
  <line x1="560.0" y1="390.752249502096" x2="560.0" y2="270.752249502096" class="data-ray"
    style="animation: rayStream 3.9s infinite linear 1.4s;"/>
</g>
<g style="animation: floatCube 5.5s infinite ease-in-out 3.4562561135011176s alternate;">
  <polygon points="440.0,378.2381603327023 480.0,398.2381603327023 480.0,440.0 440.0,420.0"  class="cube-left-hot"/>
  <polygon points="480.0,398.2381603327023 520.0,378.2381603327023 520.0,420.0 480.0,440.0" class="cube-right-hot"/>
  <polygon points="480.0,358.2381603327023 520.0,378.2381603327023 480.0,398.2381603327023 440.0,378.2381603327023"   class="cube-top-hot"/>
  <line x1="480.0" y1="378.2381603327023" x2="480.0" y2="258.2381603327023" class="data-ray"
    style="animation: rayStream 2.8s infinite linear 0.2s;"/>
</g>
<g style="animation: floatCube 4.9s infinite ease-in-out 1.9541274085975062s alternate;">
  <polygon points="640.0,404.26809155097243 680.0,424.26809155097243 680.0,450.0 640.0,430.0"  class="cube-left"/>
  <polygon points="680.0,424.26809155097243 720.0,404.26809155097243 720.0,430.0 680.0,450.0" class="cube-right"/>
  <polygon points="680.0,384.26809155097243 720.0,404.26809155097243 680.0,424.26809155097243 640.0,404.26809155097243"   class="cube-top"/>
  <line x1="680.0" y1="404.26809155097243" x2="680.0" y2="284.26809155097243" class="data-ray"
    style="animation: rayStream 2.1s infinite linear 0.4s;"/>
</g>
<g style="animation: floatCube 4.7s infinite ease-in-out 0.8403061533590162s alternate;">
  <polygon points="560.0,394.688590531851 600.0,414.688590531851 600.0,450.0 560.0,430.0"  class="cube-left-hot"/>
  <polygon points="600.0,414.688590531851 640.0,394.688590531851 640.0,430.0 600.0,450.0" class="cube-right-hot"/>
  <polygon points="600.0,374.688590531851 640.0,394.688590531851 600.0,414.688590531851 560.0,394.688590531851"   class="cube-top-hot"/>
  <line x1="600.0" y1="394.688590531851" x2="600.0" y2="274.688590531851" class="data-ray"
    style="animation: rayStream 2.6s infinite linear 3.0s;"/>
</g>
<g style="animation: floatCube 3.4s infinite ease-in-out 3.1494980365418845s alternate;">
  <polygon points="480.0,398.97275082029313 520.0,418.97275082029313 520.0,450.0 480.0,430.0"  class="cube-left"/>
  <polygon points="520.0,418.97275082029313 560.0,398.97275082029313 560.0,430.0 520.0,450.0" class="cube-right"/>
  <polygon points="520.0,378.97275082029313 560.0,398.97275082029313 520.0,418.97275082029313 480.0,398.97275082029313"   class="cube-top"/>
  <line x1="520.0" y1="398.97275082029313" x2="520.0" y2="278.97275082029313" class="data-ray"
    style="animation: rayStream 3.5s infinite linear 1.8s;"/>
</g>
</svg>
